<?xml version="1.0" encoding="UTF-8" standalone="no"?>
<!-- Created with Inkscape (http://www.inkscape.org/) -->

<svg
   xmlns:dc="http://purl.org/dc/elements/1.1/"
   xmlns:cc="http://creativecommons.org/ns#"
   xmlns:rdf="http://www.w3.org/1999/02/22-rdf-syntax-ns#"
   xmlns:svg="http://www.w3.org/2000/svg"
   xmlns="http://www.w3.org/2000/svg"
   xmlns:sodipodi="http://sodipodi.sourceforge.net/DTD/sodipodi-0.dtd"
   xmlns:inkscape="http://www.inkscape.org/namespaces/inkscape"
   width="210mm"
   height="297mm"
   id="svg2"
   version="1.1"
   inkscape:version="0.48.5 r10040"
   sodipodi:docname="Documento nuevo 1">
  <defs
     id="defs4" />
  <sodipodi:namedview
     id="base"
     pagecolor="#ffffff"
     bordercolor="#666666"
     borderopacity="1.0"
     inkscape:pageopacity="0.0"
     inkscape:pageshadow="2"
     inkscape:zoom="0.5"
     inkscape:cx="492.50102"
     inkscape:cy="449.08476"
     inkscape:document-units="px"
     inkscape:current-layer="layer1"
     showgrid="false"
     inkscape:window-width="1366"
     inkscape:window-height="705"
     inkscape:window-x="-8"
     inkscape:window-y="-8"
     inkscape:window-maximized="1" />
  <metadata
     id="metadata7">
    <rdf:RDF>
      <cc:Work
         rdf:about="">
        <dc:format>image/svg+xml</dc:format>
        <dc:type
           rdf:resource="http://purl.org/dc/dcmitype/StillImage" />
        <dc:title></dc:title>
      </cc:Work>
    </rdf:RDF>
  </metadata>
  <g
     inkscape:label="Capa 1"
     inkscape:groupmode="layer"
     id="layer1">
    <path
       style="fill:none;stroke:#000000;stroke-width:11.80161762;stroke-linecap:butt;stroke-linejoin:miter;stroke-miterlimit:4;stroke-opacity:1;stroke-dasharray:none"
       d="m 120.60259,327.12869 -17.10727,10.43126 -10.014004,8.76225 -5.841497,10.8485 -2.92076,9.17951 0.41726,601.67479 2.920761,7.9277 7.927737,11.2658 8.345023,8.345 7.5105,5.8415 6.25875,2.0862 523.64898,-1.6689 7.09325,-2.5035 8.34502,-5.007 7.09324,-7.9278 6.25875,-9.5968 3.33802,-8.1363 -0.19921,-603.40263 -3.24545,-9.4413 -6.78593,-10.03137 -13.8669,-11.80162 -25.07844,-6.49089 -11.21153,8.85121 -56.94281,43.96103 -67.8593,35.99493 -39.83046,10.62146 -158.73175,2.36032 -24.19332,-5.90081 -38.35526,-20.94787 -34.51973,-19.47267 -39.24038,-26.84868 -29.50404,-24.48836 z"
       id="path3812"
       inkscape:connector-curvature="0" />
    <path
       style="fill:#000000;stroke:#000000;stroke-width:2.36032343px;stroke-linecap:butt;stroke-linejoin:miter;stroke-opacity:1"
       d="m 229.34624,822.6242 2.31816,1.8967 1.26448,0.3161 1.36983,-0.3161 6.53302,-7.4814 20.12599,-24.8677 18.11052,-20.1948 11.62342,-14.1567 26.97224,-27.8664 19.96841,-20.2664 32.48589,-29.50554 14.0189,-11.29493 2.42353,-0.10527 1.5806,0.94833 3.688,2.10744 2.31817,1.05372 2.52892,0.42148 4.95245,0.42149 4.21488,0 2.52892,-0.7376 3.89874,-1.79132 4.32024,-2.84504 1.58057,-2.10742 0.21077,-1.4752 -2.2128,-2.00208 -5.05784,-2.84501 -5.58469,-1.79132 -2.10744,-1.05372 -0.84297,-1.58057 0.21078,-1.36984 4.53099,-2.63428 8.32435,-6.95453 3.37188,-2.63429 1.79132,-0.63223 1.89669,0.21078 2.10744,1.15908 2.31817,1.05372 2.10743,0.7376 2.63429,0.31609 3.58264,0.21078 6.21693,0 3.79337,-1.36984 5.16321,-2.73965 3.05577,-2.10744 0.52687,-1.4752 -0.94836,-2.42353 -2.9504,-2.31819 -5.16321,-2.84502 -4.00412,-0.10551 -0.84297,-1.05371 0,-1.68594 4.84709,-2.42355 7.37601,-4.63634 4.95248,-3.47728 5.84813,-4.10948 1.21176,-0.47417 1.42252,-0.21078 1.05372,0.26344 2.84502,2.05476 2.42355,1.79129 1.42252,0.68492 1.47521,0.47419 5.26857,0.6849 3.84605,-0.10528 2.89772,-0.10527 2.79236,-0.63223 2.2128,-1.26445 3.63533,-2.26549 3.89873,-3.3192 0.57956,-1.1064 -0.57956,-1.00104 -3.21381,-2.26549 -6.26961,-2.2128 -5.69008,-1.68595 4.53097,-3.84606 3.52996,-3.3192 2.16012,-3.26652 -0.31612,-2.68697 -1.15908,-2.47624 -1.84401,-1.94937 -1.94937,0.6849 -3.52995,1.58059 -2.16012,1.00101 -2.26549,0.31612 -0.68492,-1.26445 0.52687,-2.63429 1.36982,-6.53304 -0.15815,-2.26549 0.63224,-7.90288 -0.94835,-0.0526 -3.74069,1.21179 -5.79545,3.52994 -5.95349,10.69521 -2.00205,6.58573 -0.35251,7.82193 -0.44705,2.23527 -1.04312,1.93721 -8.64303,5.51367 -7.82346,4.84308 -5.21563,4.24702 -2.90584,2.01173 -1.80895,0.15649 -0.79028,-0.31612 -0.10528,-2.47624 0.54385,-18.74824 -0.59608,-0.37255 -1.04312,0.37255 -2.38428,2.30977 -4.17251,3.72546 -3.20388,4.02348 -3.20388,5.29015 -1.93724,6.8548 -0.29803,2.01175 -0.8196,8.64303 -0.74511,0.8196 -2.08624,1.41568 -4.61956,3.27839 -5.17836,4.61956 -1.52743,1.26666 0,0 -2.19803,0.8196 -1.30389,-0.4098 -0.29804,-1.67646 0.22352,-2.94309 0.44705,-2.64507 1.30391,-8.75482 -0.14893,-0.52156 -0.59606,-0.26077 -0.7451,-0.0746 -1.37841,0.4098 -2.08624,1.19215 -3.35291,2.42153 -2.8686,3.94899 -2.23527,2.64507 -3.75369,9.36874 -1.58057,3.79337 -0.52685,4.10951 -0.63224,4.21485 -1.58056,2.95041 -3.16116,3.26652 -9.69418,7.27065 -6.53304,5.58469 -5.69006,5.69005 -21.35097,18.31321 -20.41545,20.11743 -30.10161,31.5918 -18.03117,19.0743 -38.74466,48.5798 -0.4098,1.4157 0.14893,0.4843 0.52159,0.5961 z"
       id="path2996"
       inkscape:connector-curvature="0" />
    <path
       style="fill:#000000;stroke:#000000;stroke-width:2.36032343px;stroke-linecap:butt;stroke-linejoin:miter;stroke-opacity:1"
       d="m 317.96194,324.92322 53.05037,-47.38769 56.32877,47.98377 6.85482,0 -21.50972,-87.23102 62.63867,-57.01833 -78.68146,-0.29804 -24.14089,-85.834318 -24.73699,86.132358 -76.59522,0 63.36183,53.84221 -23.12697,90.40714 z"
       id="path2998"
       inkscape:connector-curvature="0"
       sodipodi:nodetypes="ccccccccccccc" />
    <path
       style="fill:none;stroke:#000000;stroke-width:11.80161762;stroke-linecap:butt;stroke-linejoin:miter;stroke-miterlimit:4;stroke-opacity:1;stroke-dasharray:none"
       d="m 261.3792,784.7958 31.19,27.1858 14.11979,-16.2272 8.00824,4.4256 7.16526,4.2149 7.37601,3.3719 9.48345,3.5826 11.38014,2.7397 2.73965,29.9255 39.40897,1.0537 -0.42148,-27.1858 30.55776,-1.8967 9.69418,22.971 29.08256,-22.7603 -8.00824,-18.9669 25.28919,-17.9132 15.80572,18.124 22.97102,-34.1404 -12.43386,-19.3884 1.26445,-23.814 -24.86768,-19.38836 -10.11566,21.28506 -13.48758,-10.1157 -15.59498,19.1777 4.21485,9.2727 2.10744,5.69 -0.21078,7.5868 -4.63634,8.6405 -9.48345,9.6941 -16.6487,7.1653 -28.02884,1.2645 -1.05372,-27.8181 -31.19,0.2108 0.21077,22.3387 -1.4752,2.1075 -16.22722,-7.5868 -22.33879,-12.0124 -17.49167,-17.2809 z"
       id="path3000"
       inkscape:connector-curvature="0" />
    <path
       style="fill:none;stroke:#000000;stroke-width:11.80161762;stroke-linecap:butt;stroke-linejoin:miter;stroke-miterlimit:4;stroke-opacity:1;stroke-dasharray:none"
       d="m 312.29924,728.1657 -14.30571,-37.85052 -23.2468,7.45088 -4.47053,-13.41162 -2.08626,-14.60374 -2.38428,-35.76431 -47.68574,5.96072 2.38428,28.90947 17.28609,1.78823 0.29804,35.16819 -12.5175,10.4313 9.53714,37.5525 22.94874,-8.9411 15.19985,26.5252 28.3134,-33.0819 z"
       id="path3770"
       inkscape:connector-curvature="0" />
    <path
       style="fill:none;stroke:#000000;stroke-width:11.80161762;stroke-linecap:butt;stroke-linejoin:miter;stroke-miterlimit:4;stroke-opacity:1;stroke-dasharray:none"
       d="m 449.36212,425.47867 5.90081,-29.08256 14.33053,-34.56189 23.60324,-42.57011 13.48755,-18.9669 14.75202,-18.54539 42.14863,-40.88418 24.86771,-18.54539 21.07431,-14.75202 13.06607,-12.2231 10.53716,-10.11569 26.97513,-26.55364 15.59499,-22.76024 15.59501,-24.44623 11.38013,-21.074308 17.28092,-33.29742 -2.5289,45.520518 -7.16528,40.88418 -8.00825,24.44622 -29.50404,29.50405 30.34703,-27.81812 -2.52892,14.5413 -6.74377,20.86356 -10.53717,13.6983 -14.33054,16.22722 -18.96687,16.22723 -30.13628,16.85946 31.18999,-16.43798 18.86151,-16.75407 24.55157,-29.08256 -1.58057,12.85533 -8.95657,22.65489 -8.74585,15.48962 -7.69213,10.85329 -11.38014,11.38013 -23.60323,14.54127 -15.80574,6.32229 17.33676,-6.3953 23.47033,-14.82729 11.39989,-11.25084 2.90584,-4.32151 -3.20388,15.12531 -7.59993,12.36849 -26.60659,26.58208 -17.49167,16.64871 -30.55776,23.39251 -27.81809,21.70655 -38.56601,21.91728 -25.9214,14.11978 -22.76027,8.00825 -14.33054,2.73965 z"
       id="path3772"
       inkscape:connector-curvature="0" />
    <path
       style="fill:none;stroke:#000000;stroke-width:11.80161762;stroke-linecap:butt;stroke-linejoin:miter;stroke-miterlimit:4;stroke-opacity:1;stroke-dasharray:none"
       d="m 535.13457,364.99538 -17.91315,11.16938 15.38423,-8.21898 10.74792,-8.00824 14.96276,-10.7479 10.74789,-10.11566 14.33054,-13.90906 4.21488,-4.00412"
       id="path3774"
       inkscape:connector-curvature="0" />
    <path
       style="fill:none;stroke:#000000;stroke-width:11.80161762;stroke-linecap:butt;stroke-linejoin:miter;stroke-miterlimit:4;stroke-opacity:1;stroke-dasharray:none"
       d="m 477.60169,380.37964 11.1694,-19.80987 11.38011,-18.12391 12.43386,-19.59911 7.79749,-10.32641 11.80162,-15.80574 9.6942,-11.59089 19.59911,-18.96688"
       id="path3776"
       inkscape:connector-curvature="0" />
    <path
       style="fill:none;stroke:#000000;stroke-width:11.80161762;stroke-linecap:butt;stroke-linejoin:miter;stroke-miterlimit:4;stroke-opacity:1;stroke-dasharray:none"
       d="m 296.36257,428.00759 -1.4752,-13.6983 -5.05784,-18.12393 -13.06607,-32.03295 -18.54542,-34.98337 -27.81809,-39.83046 -27.18587,-26.76439 -25.9214,-26.13215 -34.14041,-21.91728 -23.60323,-20.23135 -25.078441,-25.07844 -27.18585,-32.03296 -20.4421,-34.14038 -17.49168,-33.718928 -6.53304,-18.75614 2.73965,45.30978 5.69008,36.880058 2.9504,16.22722 7.16526,14.33054 7.16528,10.53717 9.2727,9.69418 8.21898,8.21898 10.53716,9.48345 -18.11022,-15.50747 -14.08221,-11.69791 -1.04312,1.26665 0.52156,8.71755 2.01176,10.87833 4.76856,6.33324 8.19598,12.66653 8.94107,11.17635 10.87831,11.32535 12.517528,11.77242 10.900703,7.54605 12.32847,6.95453 14.22517,5.37396 -15.02716,-5.04725 -15.870393,-9.16461 -7.674426,-5.43916 -24.334862,-23.86745 -12.64459,-15.70037 -5.47932,-8.64046 3.47727,17.28094 10.32642,25.9214 8.9102,12.38233 7.00383,10.43126 9.38814,9.23911 9.090103,7.00384 11.921428,7.74894 11.02731,6.40778 11.02734,5.21561 -12.74103,-5.36464 -11.54889,-6.92932 -11.623394,-7.82346 -9.164617,-7.07835 -8.27048,-8.49402 -1.19215,-1.56468 0,5.06659 2.23527,9.16462 5.96072,11.47438 7.901746,8.33473 24.235475,25.07844 20.02059,16.64871 19.80987,16.6487 27.3966,19.38838 17.49167,10.95863 32.45445,17.91318 22.12804,12.64459 18.12391,7.37601 8.219,1.68595 7.58674,1.05372 z"
       id="path3778"
       inkscape:connector-curvature="0" />
    <path
       style="fill:none;stroke:#000000;stroke-width:11.80161762;stroke-linecap:butt;stroke-linejoin:miter;stroke-miterlimit:4;stroke-opacity:1;stroke-dasharray:none"
       d="m 159.16877,322.00376 11.59086,12.01237 11.59089,11.59087 14.11978,12.01237 9.90494,7.37601 9.69418,5.90081 7.79749,3.16113 5.90081,1.89671"
       id="path3780"
       inkscape:connector-curvature="0" />
    <path
       style="fill:none;stroke:#000000;stroke-width:11.80161762;stroke-linecap:butt;stroke-linejoin:miter;stroke-miterlimit:4;stroke-opacity:1;stroke-dasharray:none"
       d="m 184.2472,266.9998 12.43386,13.27682 14.11978,16.64871 12.2231,15.59501 14.33054,19.59911 12.43386,18.54539 12.2231,19.80987 5.47932,11.38013"
       id="path3782"
       inkscape:connector-curvature="0" />
    <path
       style="fill:none;stroke:#000000;stroke-width:11.80161762;stroke-linecap:butt;stroke-linejoin:miter;stroke-miterlimit:4;stroke-opacity:1;stroke-dasharray:none"
       d="m 296.36257,428.85056 152.99955,-2.10744 17.61773,-3.17003 19.0743,-6.85483 12.81554,-5.0666 -1.49017,10.1332 -5.36466,12.21949 -9.83518,8.94107 -12.81554,2.68232 -13.70964,0.29804 -11.02733,2.68231 -16.09394,5.66268 -12.81554,6.85483 -10.13323,9.53714 -12.21946,19.67037 -19.96841,38.44663 -28.90948,-47.08966 -9.23911,-10.7293 -11.62339,-9.23911 -18.18017,-7.74894 -20.26645,-4.47052 -13.70966,-2.68232 -12.81554,-8.04698 -9.53715,-11.02731 -2.68231,-15.7959 21.45857,11.32535 8.04698,2.98036 9.23911,2.08624 z"
       id="path3784"
       inkscape:connector-curvature="0" />
    <path
       style="fill:none;stroke:#000000;stroke-width:11.80161762;stroke-linecap:butt;stroke-linejoin:miter;stroke-miterlimit:4;stroke-opacity:1;stroke-dasharray:none"
       d="m 297.39745,451.88649 0.59608,21.16054 5.66268,18.77627 10.7293,17.88215 17.5841,15.79589 11.02734,9.23911 10.72927,4.17251 20.26645,0 -0.29804,-11.62341 -28.3134,-43.51323 -9.83519,-11.62339 -9.83518,-9.53714 -12.81554,-6.55679 z"
       id="path3786"
       inkscape:connector-curvature="0" />
    <path
       style="fill:none;stroke:#000000;stroke-width:11.80161762;stroke-linecap:butt;stroke-linejoin:miter;stroke-miterlimit:4;stroke-opacity:1;stroke-dasharray:none"
       d="m 400.51786,535.03849 16.09394,-10.7293 12.21947,-13.41159 8.94107,-14.60377 6.55679,-16.09394 2.68232,-13.11358 0.89411,-20.26642 -20.26644,7.15284 -15.7959,10.13322 -8.94107,9.53715 -11.62339,21.4586 -16.39198,33.38 0.59608,8.64303 0.11919,2.36599 9.2727,-0.63223 10.11566,-1.26445 z"
       id="path3788"
       inkscape:connector-curvature="0" />
    <path
       style="fill:none;stroke:#000000;stroke-width:11.80161762;stroke-linecap:butt;stroke-linejoin:miter;stroke-miterlimit:4;stroke-opacity:1;stroke-dasharray:none"
       d="M 428.49853,510.82964 404.47381,474.79258 z"
       id="path3790"
       inkscape:connector-curvature="0" />
    <path
       style="fill:none;stroke:#000000;stroke-width:11.80161762;stroke-linecap:butt;stroke-linejoin:miter;stroke-miterlimit:4;stroke-opacity:1;stroke-dasharray:none"
       d="m 313.19335,507.17213 24.43896,-32.33688 z"
       id="path3792"
       inkscape:connector-curvature="0" />
    <path
       style="fill:none;stroke:#000000;stroke-width:11.80161762;stroke-linecap:butt;stroke-linejoin:miter;stroke-miterlimit:4;stroke-opacity:1;stroke-dasharray:none"
       d="m 377.86714,539.80708 c 36.95643,-1.78823 36.95643,-1.78823 36.95643,-1.78823 l 15.49789,-5.0666 14.30571,-9.23911 9.83518,-13.70966 8.04696,-17.28609 5.36466,-16.68998 2.98036,-15.49789 1.19215,-16.39197"
       id="path3794"
       inkscape:connector-curvature="0" />
    <path
       style="fill:none;stroke:#000000;stroke-width:11.80161762;stroke-linecap:butt;stroke-linejoin:miter;stroke-miterlimit:4;stroke-opacity:1;stroke-dasharray:none"
       d="m 272.06441,445.03166 2.08624,21.16056 3.2784,19.07429 6.85482,17.88215 7.74895,12.5175 11.62339,12.21947 9.83518,5.06662 10.7293,5.36464 13.11358,0.59607 18.18018,0"
       id="path3796"
       inkscape:connector-curvature="0" />
    <path
       style="fill:none;stroke:#000000;stroke-width:11.80161762;stroke-linecap:butt;stroke-linejoin:miter;stroke-miterlimit:4;stroke-opacity:1;stroke-dasharray:none"
       d="m 382.34578,539.49072 0,21.28507 -4.21485,8.21898 -6.11156,1.89668 -7.37601,-4.42561 -3.16116,-8.00824 0.21077,-19.38836"
       id="path3798"
       inkscape:connector-curvature="0" />
    <path
       style="fill:none;stroke:#000000;stroke-width:11.80161762;stroke-linecap:butt;stroke-linejoin:miter;stroke-miterlimit:4;stroke-opacity:1;stroke-dasharray:none"
       d="m 261.03707,331.18198 225.01708,0.59607 -21.16054,41.12895 -10.13322,26.82321 -4.17251,26.5252 -155.87274,2.08624 -0.29804,-16.39195 -6.85483,-22.05468 -11.62339,-28.3134 z"
       id="path3800"
       inkscape:connector-curvature="0" />
    <path
       style="fill:none;stroke:#000000;stroke-width:2.36032343px;stroke-linecap:butt;stroke-linejoin:miter;stroke-opacity:1"
       d="m 307.53195,349.82188 0.63224,43.41307 1.89668,4.84711 2.31817,3.16114 3.16116,1.68595 4.42561,0 3.79337,-0.63223 3.79337,-4.21486 2.52892,-4.84711 -0.63221,-43.20235"
       id="path3802"
       inkscape:connector-curvature="0" />
    <path
       style="fill:none;stroke:#000000;stroke-width:2.36032343px;stroke-linecap:butt;stroke-linejoin:miter;stroke-opacity:1"
       d="m 341.67236,404.1936 -0.21078,-54.58248 22.76027,54.79324 0,-55.21472"
       id="path3804"
       inkscape:connector-curvature="0" />
    <path
       style="fill:none;stroke:#000000;stroke-width:2.36032343px;stroke-linecap:butt;stroke-linejoin:miter;stroke-opacity:1"
       d="m 372.23012,403.98287 13.06607,-53.73951 14.33053,54.161 -4.89977,-17.96587 -18.22929,-0.0857"
       id="path3806"
       inkscape:connector-curvature="0" />
    <path
       style="fill:none;stroke:#000000;stroke-width:2.36032343px;stroke-linecap:butt;stroke-linejoin:miter;stroke-opacity:1"
       d="m 407.14915,404.11135 0.31295,-54.45116 14.08219,54.86841 13.97788,-55.8072 0.10433,55.49427"
       id="path3808"
       inkscape:connector-curvature="0" />
    <path
       style="fill:none;stroke:#000000;stroke-width:11.80161762;stroke-linecap:butt;stroke-linejoin:miter;stroke-miterlimit:4;stroke-opacity:1;stroke-dasharray:none"
       d="m 274.56791,472.74901 -39.63878,0.83449 -6.67598,3.33802 -6.67601,6.67599 -6.25876,8.76225 -1.669,10.84852 0.41725,112.2403 0.41724,200.28012 1.14298,37.664 1.47521,3.2454 5.01568,5.4583 5.90081,4.2781 5.31073,2.5078 290.90988,-1.9178 4.13056,-2.8029 5.45825,-5.1632 5.45825,-9.5888 0.7376,-4.1305 -1.4752,-349.03288 -1.47521,-6.49089 -5.45824,-7.52353 -7.52354,-6.34337 -7.96609,-2.9504 -47.05895,-0.14752 -9.14625,26.70115 -7.22849,14.30947 -10.32642,11.21153 -15.78466,10.03138 -18.88259,2.9504 -59.00809,0.7376 -24.48835,-0.7376 -21.98052,-11.21153 -15.9703,-18.359 -6.67601,-15.64689 -3.33799,-12.51751 z"
       id="path3810"
       inkscape:connector-curvature="0" />
    <path
       style="fill:none;stroke:#000000;stroke-width:11.80161762;stroke-linecap:butt;stroke-linejoin:miter;stroke-miterlimit:4;stroke-opacity:1;stroke-dasharray:none"
       d="m 103.91258,437.49137 78.23441,0 0.20865,33.58863 -0.28038,-33.54683 -34.86087,0.009 0.0923,31.34704"
       id="path3814"
       inkscape:connector-curvature="0" />
    <path
       style="fill:none;stroke:#000000;stroke-width:11.80161762;stroke-linecap:butt;stroke-linejoin:miter;stroke-miterlimit:4;stroke-opacity:1;stroke-dasharray:none"
       d="m 102.97376,479.73795 72.39292,23.2617 -70.82255,24.66838 28.60205,-8.76072 -0.0913,-31.04602"
       id="path3816"
       inkscape:connector-curvature="0"
       sodipodi:nodetypes="ccccc" />
    <path
       style="fill:none;stroke:#000000;stroke-width:11.80161762;stroke-linecap:butt;stroke-linejoin:miter;stroke-miterlimit:4;stroke-opacity:1;stroke-dasharray:none"
       d="m 127.48721,584.78068 -7.92774,-4.17251 -6.67601,-5.42423 -2.29487,-7.09327 0.62586,-5.63287 4.38114,-7.71913 10.22263,-6.88464 12.93474,-2.29487 12.10027,0 13.56062,1.04312 9.38814,3.12939 6.67599,6.05012 2.5035,6.46738 0.20865,5.00701 -0.62586,4.1725 -5.21563,6.46739 -9.17951,7.09324"
       id="path3818"
       inkscape:connector-curvature="0" />
    <path
       style="fill:none;stroke:#000000;stroke-width:11.80161762;stroke-linecap:butt;stroke-linejoin:miter;stroke-miterlimit:4;stroke-opacity:1;stroke-dasharray:none"
       d="m 189.03163,609.18982 -65.09105,0.41724 -7.71913,3.54664 -5.21563,6.67599 -1.87761,7.09327 0.41726,5.84149 5.007,7.5105 9.59674,4.17251 4.17251,0.41724 60.29265,0.20865"
       id="path3820"
       inkscape:connector-curvature="0" />
    <path
       style="fill:none;stroke:#000000;stroke-width:11.80161762;stroke-linecap:butt;stroke-linejoin:miter;stroke-miterlimit:4;stroke-opacity:1;stroke-dasharray:none"
       d="m 187.36262,671.36009 -76.98266,0.20865 -0.20865,33.58866"
       id="path3822"
       inkscape:connector-curvature="0" />
    <path
       style="fill:none;stroke:#000000;stroke-width:11.80161762;stroke-linecap:butt;stroke-linejoin:miter;stroke-miterlimit:4;stroke-opacity:1;stroke-dasharray:none"
       d="m 105.58159,730.401 77.36954,-0.4828 -0.0739,-24.8652 0.14775,46.9933"
       id="path3824"
       inkscape:connector-curvature="0" />
    <path
       style="fill:none;stroke:#000000;stroke-width:11.80161762;stroke-linecap:butt;stroke-linejoin:miter;stroke-miterlimit:4;stroke-opacity:1;stroke-dasharray:none"
       d="m 105.28173,804.2684 69.00621,-25.1753 -69.74381,-23.9489 27.7338,8.925 0.21621,31.5793"
       id="path3826"
       inkscape:connector-curvature="0"
       sodipodi:nodetypes="ccccc" />
    <path
       style="fill:none;stroke:#000000;stroke-width:11.80161762;stroke-linecap:butt;stroke-linejoin:miter;stroke-miterlimit:4;stroke-opacity:1;stroke-dasharray:none"
       d="m 111.92014,823.5936 69.92458,-0.1475 0,24.0458 -5.01568,6.4909 -8.7037,5.6057 -10.03137,1.4752 -17.99747,0.1475 -15.19458,-1.6227 -10.03138,-6.3433 -2.9504,-5.9009 -0.59008,-6.6384 z"
       id="path3828"
       inkscape:connector-curvature="0"
       sodipodi:nodetypes="cccccccccccc" />
    <path
       style="fill:none;stroke:#000000;stroke-width:11.80161762;stroke-linecap:butt;stroke-linejoin:miter;stroke-miterlimit:4;stroke-opacity:1;stroke-dasharray:none"
       d="m 334.38063,976.277 0.29504,-71.3998 21.833,0 3.17827,2.0206 5.63288,7.9278 3.75525,11.8916 0.62589,14.1865 -0.20865,13.7693 -3.12939,9.8053 -5.63286,6.6761 -7.71913,4.3811 -5.84152,0.4172 z"
       id="path3830"
       inkscape:connector-curvature="0" />
    <path
       style="fill:none;stroke:#000000;stroke-width:11.80161762;stroke-linecap:butt;stroke-linejoin:miter;stroke-miterlimit:4;stroke-opacity:1;stroke-dasharray:none"
       d="m 425.19524,903.7684 -33.58866,0.6259 0,33.7973 31.58122,-0.1962 -31.58122,0.3004 0.62589,37.4482 33.79726,0.2087"
       id="path3832"
       inkscape:connector-curvature="0" />
    <path
       style="fill:none;stroke:#000000;stroke-width:11.80161762;stroke-linecap:butt;stroke-linejoin:miter;stroke-miterlimit:4;stroke-opacity:1;stroke-dasharray:none"
       d="m 568.93778,835.1403 0.88512,39.6428 72.28491,0.295 -0.29504,-39.8304 0.20275,39.6829 -38.92837,-0.07 -0.0392,-35.349"
       id="path3834"
       inkscape:connector-curvature="0"
       sodipodi:nodetypes="ccccccc" />
    <path
       style="fill:none;stroke:#000000;stroke-width:11.80161762;stroke-linecap:butt;stroke-linejoin:miter;stroke-miterlimit:4;stroke-opacity:1;stroke-dasharray:none"
       d="m 585.41931,778.5934 -10.95282,6.0501 -4.58977,4.3811 -1.98192,5.8416 -0.41726,6.4673 3.23369,5.32 8.2407,7.1975 6.98894,3.9639 11.57868,2.2949 11.89164,0.5216 16.48139,-3.2337 10.014,-6.7803 4.38111,-6.0502 1.98194,-6.9889 -0.73019,-5.32 -5.73719,-6.1544 -8.55362,-5.3199 -6.36305,-2.9208"
       id="path3836"
       inkscape:connector-curvature="0" />
    <path
       style="fill:none;stroke:#000000;stroke-width:11.80161762;stroke-linecap:butt;stroke-linejoin:miter;stroke-miterlimit:4;stroke-opacity:1;stroke-dasharray:none"
       d="m 568.41636,733.739 0.73019,6.1544 1.87762,5.5286 3.65094,4.3811 6.15443,4.0682 8.76225,3.8596 9.8054,1.356 3.96386,0.4173 8.97088,-0.5216 11.89164,-2.7121 9.80537,-6.0501 5.94582,-6.4674 2.3992,-6.0501 0.52156,-5.007 -1.46038,-4.4855 -4.69407,-7.7191 -10.53556,-6.363 -14.08219,-2.1906 -10.01402,-0.1043 -10.8485,0.6258 -8.03206,1.7734 -5.007,3.025 -5.007,4.4855 -3.44232,4.3811 -1.46038,3.2337 z"
       id="path3838"
       inkscape:connector-curvature="0" />
    <path
       style="fill:none;stroke:#000000;stroke-width:11.80161762;stroke-linecap:butt;stroke-linejoin:miter;stroke-miterlimit:4;stroke-opacity:1;stroke-dasharray:none"
       d="m 652.59659,689.09322 -84.28455,2.5035 0,-2.08624 78.02578,-36.30076 0,-1.87764 -82.82418,1.87764"
       id="path3840"
       inkscape:connector-curvature="0"
       sodipodi:nodetypes="cccccc" />
    <path
       style="fill:none;stroke:#000000;stroke-width:11.80161762;stroke-linecap:butt;stroke-linejoin:miter;stroke-miterlimit:4;stroke-opacity:1;stroke-dasharray:none"
       d="m 567.68617,609.60706 2.29487,6.46738 2.92076,3.96388 4.38112,3.96388 5.63289,2.5035 6.88461,1.66901 9.38814,1.46038 6.67599,0.41723 7.71913,0 10.43126,-1.66898 8.97088,-4.7984 6.46738,-5.84149 1.62197,-6.57898 0.29504,-6.63841 -2.06528,-8.55617 -8.26114,-7.08097 -13.57186,-5.60577 -17.84994,-0.88512 -12.3917,1.4752 -9.14625,4.57313 -5.01569,5.45825 -3.54049,5.75328 c 0,0 -0.59008,-0.14752 -1.4752,3.39297 -0.88512,3.54048 -0.51632,3.02416 -0.51632,3.02416 z"
       id="path3842"
       inkscape:connector-curvature="0" />
    <path
       style="fill:none;stroke:#000000;stroke-width:11.80161762;stroke-linecap:butt;stroke-linejoin:miter;stroke-miterlimit:4;stroke-opacity:1;stroke-dasharray:none"
       d="m 646.12921,562.66643 -81.98968,-0.83451 0,-3.54663 78.23443,-20.028 -0.20865,-3.96388 -79.9034,-16.48139 0,-3.54662 84.07591,-0.62589"
       id="path3844"
       inkscape:connector-curvature="0"
       sodipodi:nodetypes="cccccccc" />
    <path
       style="fill:none;stroke:#000000;stroke-width:11.80161762;stroke-linecap:butt;stroke-linejoin:miter;stroke-miterlimit:4;stroke-opacity:1;stroke-dasharray:none"
       d="m 646.33782,489.23039 -89.29154,0"
       id="path3846"
       inkscape:connector-curvature="0"
       sodipodi:nodetypes="cc" />
    <path
       style="fill:none;stroke:#000000;stroke-width:11.80161762;stroke-linecap:butt;stroke-linejoin:miter;stroke-miterlimit:4;stroke-opacity:1;stroke-dasharray:none"
       d="m 646.12921,471.49726 -72.23237,-23.57465 70.98062,-25.66087 -25.19272,8.4855 -0.0923,32.88781"
       id="path3848"
       inkscape:connector-curvature="0"
       sodipodi:nodetypes="ccccc" />
  </g>
</svg>
